# AST/ASF file generated using VICON BodyLanguage
# -----------------------------------------------
:version 1.10
:name VICON
:units
  mass 1.0
  length 0.45
  angle deg
:documentation
   .ast/.asf automatically generated from VICON data using
   VICON BodyBuilder and BodyLanguage model FoxedUp or BRILLIANT.MOD
:root
   order TX TY TZ RX RY RZ
   axis XYZ
   position 0 0 0  
   orientation 0 0 0 
:bonedata
  begin
     id 1 
     name lhipjoint
     direction 0.623415 -0.642378 0.445763 
     length 2.49859 
     axis 0 0 0  XYZ
  end
  begin
     id 2 
     name lfemur
     direction 0.34202 -0.939693 0  
     length 6.69689  
     axis 0 0 20  XYZ
    dof rx ry rz
    limits (-160.0 20.0)
           (-70.0 70.0)
           (-60.0 70.0)
  end
  begin
     id 3 
     name ltibia
     direction 0.34202 -0.939693 0   
     length 7.37574   
     axis 0 0 20   XYZ
    dof rx
    limits (-10.0 170.0)
  end
  begin
     id 4 
     name lfoot
     direction 0.084323 -0.231675 0.969132   
     length 2.09111   
     axis -90 7.62852e-016 20   XYZ
    dof rx rz
    limits (-45.0 90.0)
           (-70.0 20.0)
  end
  begin
     id 5 
     name ltoes
     direction 1.5357e-011 -4.21957e-011 1   
     length 1.04989   
     axis -90 7.62852e-016 20   XYZ
    dof rx
    limits (-90.0 20.0)
  end
  begin
     id 6 
     name rhipjoint
     direction -0.605402 -0.653903 0.45376   
     length 2.45455  
     axis 0 0 0  XYZ 
  end
  begin
     id 7 
     name rfemur
     direction -0.34202 -0.939693 0   
     length 6.64523   
     axis 0 0 -20   XYZ
    dof rx ry rz
    limits (-160.0 20.0)
           (-70.0 70.0)
           (-70.0 60.0)
  end
  begin
     id 8 
     name rtibia
     direction -0.34202 -0.939693 0   
     length 7.3339   
     axis 0 0 -20   XYZ
    dof rx
    limits (-10.0 170.0)
 end
 begin
     id 9 
     name rfoot
     direction -0.120854 -0.332043 0.93549   
     length 2.23135  
     axis -90 -7.62852e-016 -20   XYZ
    dof rx rz
    limits (-45.0 90.0)
           (-20.0 70.0)
  end
  begin
     id 10 
     name rtoes
     direction -1.53563e-011 -4.21914e-011 1   
     length 1.10614   
     axis -90 -7.62852e-016 -20   XYZ
    dof rx
    limits (-90.0 20.0)
  end
  begin
     id 11 
     name lowerback
     direction 0.0319682 0.998615 -0.0417941   
     length 2.02718   
     axis 0 0 0   XYZ
    dof rx ry rz
    limits (-20.0 45.0)
           (-30.0 30.0)
           (-30.0 30.0)
  end
  begin
     id 12 
     name upperback
     direction 7.63181e-005 0.995808 0.0914691   
     length 1.97539   
     axis 0 0 0   XYZ
    dof rx ry rz
    limits (-20.0 45.0)
           (-30.0 30.0)
           (-30.0 30.0)
  end
  begin
     id 13 
     name thorax
     direction -0.016423 0.993627 0.111514   
     length 2.00349   
     axis 0 0 0   XYZ
    dof rx ry rz
    limits (-20.0 45.0)
           (-30.0 30.0)
           (-30.0 30.0)
  end
  begin
     id 14 
     name lowerneck
     direction -0.174763 0.981668 -0.0760716   
     length 1.71436   
     axis 0 0 0   XYZ
    dof rx ry rz
    limits (-20.0 45.0)
           (-30.0 30.0)
           (-30.0 30.0)
  end
  begin
     id 15 
     name upperneck
     direction 0.345458 0.934587 -0.0848868   
     length 1.72805   
     axis 0 0 0   XYZ
    dof rx ry rz
    limits (-20.0 45.0)
           (-30.0 30.0)
           (-30.0 30.0)
  end
  begin
     id 16
     name head
     direction 0.13001 0.989848 -0.0574291  
     length 1.767  
     axis 0 0 0   XYZ
    dof rx ry rz
    limits (-20.0 45.0)
           (-30.0 30.0)
           (-30.0 30.0)
  end
  begin
     id 17 
     name lclavicle
     direction 0.952951 0.290122 0.0878234  
     length 3.54654  
     axis 0 0 0   XYZ
    dof ry rz
    limits (-20.0 10.0)
           (0.0 20.0)
  end
  begin
     id 18 
     name lhumerus
     direction 1 -4.48957e-011 -4.56525e-028   
     length 5.19807   
     axis 180 -30 -90   XYZ
    dof rx ry rz
    limits (-60.0 90.0)
           (-90.0 90.0)
           (-90.0 90.0)
  end
  begin
     id 19
     name lradius
     direction 1 -4.48979e-011 -2.0317e-027   
     length 3.0937   
     axis 180 -30 -90   XYZ
    dof rx
    limits (-10.0 170.0)
  end
  begin
     id 20
     name lwrist
     direction 1 -4.48953e-011 -3.05809e-027   
     length 1.54685   
     axis 8.48514e-016 90 90   XYZ
    dof ry
    limits (-180.0 0.0)
 end
  begin
     id 21 
     name lhand
     direction 1 -4.48952e-011 -6.11639e-027   
     length 0.672632   
     axis 3.9013e-015 90 90   XYZ
    dof rx rz
    limits (-90.0 90.0)
           (-45.0 45.0)
  end
  begin
     id 22 
     name lfingers
     direction 1 -4.48925e-011 -1.22426e-026   
     length 0.542293   
     axis 7.80276e-015 90 90   XYZ
    dof rx
    limits (0.0 90.0)
  end
  begin
     id 23
     name lthumb
     direction 0.707107 -6.3486e-011 0.707107   
     length 0.778628   
     axis -90 45 5.37419e-014   XYZ
    dof rx rz
    limits (-45.0 45.0)
           (-45.0 45.0)
  end
  begin
     id 24 
     name rclavicle
     direction -0.960732 0.273675 -0.0457849   
     length 3.52079  
     axis 0 0 0   XYZ 
    dof ry rz
    limits (-10.0 20.0)
           (-20.0 0.0)
  end
  begin
     id 25 
     name rhumerus
     direction -1 -4.48976e-011 -1.63613e-027  
     length 5.45222   
     axis 180 30 90   XYZ
    dof rx ry rz
    limits (-90.0 60.0)
           (-90.0 90.0)
           (-90.0 90.0)
  end
  begin
     id 26 
     name rradius
     direction -1 -4.48957e-011 -7.00033e-028   
     length 3.01284   
     axis 180 30 90   XYZ
    dof rx
    limits (-10.0 170.0)
  end
  begin
     id 27 
     name rwrist
     direction -1 -4.48983e-011 -3.05543e-027   
     length 1.50642   
     axis 8.48514e-016 -90 -90   XYZ
    dof ry
    limits (-180.0 0.0)
  end
  begin
     id 28
     name rhand
     direction -1 -4.48984e-011 -6.11072e-027   
     length 0.622296   
     axis 3.9013e-015 -90 -90   XYZ
    dof rx rz
    limits (-90.0 90.0)
           (-45.0 45.0)
  end
  begin
     id 29
     name rfingers
     direction -1 -4.48865e-011 -1.22637e-026   
     length 0.501711   
     axis 7.80276e-015 -90 -90   XYZ
    dof rx
    limits (0.0 90.0)
  end
  begin
     id 30
     name rthumb
     direction -0.707107 -6.34932e-011 0.707107   
     length 0.72036   
     axis -90 -45 -5.37419e-014   XYZ
    dof rx rz
    limits (-45.0 45.0)
           (-45.0 45.0)
  end
:hierarchy
  begin
    root lhipjoint rhipjoint lowerback
    lhipjoint lfemur
    lfemur ltibia
    ltibia lfoot
    lfoot ltoes
    rhipjoint rfemur
    rfemur rtibia
    rtibia rfoot
    rfoot rtoes
    lowerback upperback
    upperback thorax
    thorax lowerneck lclavicle rclavicle
    lowerneck upperneck
    upperneck head
    lclavicle lhumerus
    lhumerus lradius
    lradius lwrist
    lwrist lhand lthumb
    lhand lfingers
    rclavicle rhumerus
    rhumerus rradius
    rradius rwrist
    rwrist rhand rthumb
    rhand rfingers
  end

#!OML:ASF H:\Not Pregnant\Project 1\Capture day 1\Session 1\non-pregnant.ASF
:FULLY-SPECIFIED
:DEGREES
129
root -4.84664 15.8294 32.9622 122.453 -77.6732 -112.861
lowerback -9.73527 3.04129 12.4958
upperback -5.28086 2.55194 3.91106
thorax 0.247102 0.921563 -2.61783
lowerneck 7.36991 -4.7665 -30.0033
upperneck 7.61133 -11.6009 32.9788
head 4.75973 -6.74338 16.8373
rclavicle -9.69075e-015 -4.49253e-014
rhumerus -35.0656 11.8523 -92.8614
rradius 27.0752
rwrist 21.0673
rhand -9.34608 2.95415
rfingers 7.12502
rthumb 16.6133 -26.3548
lclavicle -9.69075e-015 -4.49253e-014
lhumerus -43.615 -13.9361 97.9961
lradius 31.5431
lwrist 35.8411
lhand -17.1759 -12.1598
lfingers 7.12502
lthumb 9.06561 17.6254
rfemur -16.1236 -25.4634 39.5587
rtibia 20.2881
rfoot -14.5662 34.422
rtoes 15.2883
lfemur -23.2061 -6.91889 2.07724
ltibia 33.3344
lfoot -17.8446 6.42386
ltoes -29.7945
130
root -4.84138 15.8321 32.9677 123.213 -77.9326 -113.588
lowerback -9.78829 2.99663 12.2912
upperback -5.27761 2.50844 3.82866
thorax 0.271668 0.906798 -2.59642
lowerneck 7.20178 -4.7507 -29.9959
upperneck 7.86127 -11.5326 32.6843
head 4.81385 -6.68888 16.6946
rclavicle 2.1916e-014 3.53837e-014
rhumerus -34.9679 11.7106 -92.7369
rradius 26.9869
rwrist 21.1108
rhand -9.28038 2.9727
rfingers 7.12502
rthumb 16.6765 -26.3309
lclavicle 2.1916e-014 3.53837e-014
lhumerus -43.7238 -14.2323 98.2487
lradius 31.7004
lwrist 35.9976
lhand -17.4685 -11.9548
lfingers 7.12502
lthumb 8.78322 17.8425
rfemur -16.3883 -25.7797 39.2781
rtibia 20.5952
rfoot -14.5623 34.7998
rtoes 15.6325
lfemur -23.2489 -7.01591 1.72785
ltibia 33.2969
lfoot -17.7373 6.52583
ltoes -29.7373
131
root -4.83641 15.8346 32.9726 123.968 -78.1754 -114.313
lowerback -9.83899 2.9623 12.1027
upperback -5.27536 2.47803 3.73906
thorax 0.296435 0.898063 -2.58978
lowerneck 7.03892 -4.7403 -29.9823
upperneck 8.11222 -11.4769 32.4061
head 4.87333 -6.64251 16.5592
rclavicle 2.23633e-015 3.57812e-015
rhumerus -34.8709 11.4928 -92.6015
rradius 26.8818
rwrist 21.1973
rhand -9.19731 2.99437
rfingers 7.12502
rthumb 16.7565 -26.3025
lclavicle 2.23633e-015 3.57812e-015
lhumerus -43.8815 -14.6321 98.5519
lradius 31.9346
lwrist 36.2278
lhand -17.8055 -11.7275
lfingers 7.12502
lthumb 8.458 18.0831
rfemur -16.6426 -26.0605 39.012
rtibia 20.8986
rfoot -14.5687 35.1338
rtoes 15.9449
lfemur -23.2804 -7.12474 1.39884
ltibia 33.2486
lfoot -17.6327 6.63257
ltoes -29.6126
132
root -4.83181 15.8362 32.9762 124.606 -78.3594 -114.929
lowerback -9.87972 2.9383 11.9614
upperback -5.27249 2.45758 3.66299
thorax 0.31845 0.892893 -2.59367
lowerneck 6.8799 -4.73326 -29.9688
upperneck 8.36615 -11.4306 32.1417
head 4.93798 -6.60252 16.4315
rclavicle -7.65321e-015 -1.94809e-014
rhumerus -34.7837 11.2178 -92.4647
rradius 26.7677
rwrist 21.3098
rhand -9.11479 3.00101
rfingers 7.12502
rthumb 16.8359 -26.2891
lclavicle -7.65321e-015 -1.94809e-014
lhumerus -44.0063 -14.9597 98.8022
lradius 32.1312
lwrist 36.4018
lhand -18.0537 -11.5666
lfingers 7.12502
lthumb 8.21853 18.2535
rfemur -16.8492 -26.2851 38.8083
rtibia 21.1499
rfoot -14.5723 35.4055
rtoes 16.1987
lfemur -23.3055 -7.22936 1.14407
ltibia 33.2184
lfoot -17.5418 6.75093
ltoes -29.4962
133
root -4.82766 15.8363 32.9771 125.004 -78.4464 -115.321
lowerback -9.90641 2.9275 11.8909
upperback -5.26539 2.44805 3.61663
thorax 0.339375 0.891441 -2.60401
lowerneck 6.72879 -4.73001 -29.9562
upperneck 8.61973 -11.3954 31.8944
head 5.00687 -6.57004 16.313
rclavicle 1.98785e-016 5.1684e-015
rhumerus -34.6959 10.8536 -92.3091
rradius 26.6348
rwrist 21.4786
rhand -9.02353 3.01977
rfingers 7.12502
rthumb 16.9238 -26.2629
lclavicle 1.98785e-016 5.1684e-015
lhumerus -44.0502 -15.1368 98.9465
lradius 32.2282
lwrist 36.4549
lhand -18.1562 -11.5179
lfingers 7.12502
lthumb 8.11957 18.3061
rfemur -16.9732 -26.4195 38.7108
rtibia 21.3095
rfoot -14.5696 35.5811
rtoes 16.3732
lfemur -23.327 -7.31619 1.01745
ltibia 33.2298
lfoot -17.4804 6.86915
ltoes -29.3896
134
root -4.82404 15.8352 32.9755 125.165 -78.4464 -115.489
lowerback -9.92021 2.92962 11.8846
upperback -5.25473 2.44945 3.60093
thorax 0.358925 0.893836 -2.61625
lowerneck 6.59351 -4.72905 -29.9574
upperneck 8.867 -11.3703 31.6647
head 5.07733 -6.5454 16.2068
rclavicle 9.59136e-015 -2.5842e-014
rhumerus -34.628 10.4997 -92.1662
rradius 26.5081
rwrist 21.6061
rhand -8.93909 3.03184
rfingers 7.12502
rthumb 17.0051 -26.2438
lclavicle 9.59136e-015 -2.5842e-014
lhumerus -44.0278 -15.1855 99.0098
lradius 32.2416
lwrist 36.389
lhand -18.1524 -11.5678
lfingers 7.12502
lthumb 8.12325 18.2561
rfemur -17.0197 -26.4744 38.7088
rtibia 21.3852
rfoot -14.5635 35.6694
rtoes 16.4697
lfemur -23.3425 -7.39201 1.00722
ltibia 33.2777
lfoot -17.4422 6.99499
ltoes -29.3248
135
root -4.82084 15.8328 32.971 125.08 -78.3541 -115.423
lowerback -9.92271 2.94747 11.9413
upperback -5.24097 2.46527 3.61623
thorax 0.377916 0.901871 -2.62887
lowerneck 6.4783 -4.73256 -29.9613
upperneck 9.10087 -11.3572 31.4493
head 5.14609 -6.52912 16.108
rclavicle -1.63003e-014 -4.77083e-014
rhumerus -34.5806 10.1786 -92.0351
rradius 26.3993
rwrist 21.6522
rhand -8.8374 3.02711
rfingers 7.12502
rthumb 17.1029 -26.2401
lclavicle -1.63003e-014 -4.77083e-014
lhumerus -43.9146 -15.0756 98.9637
lradius 32.1374
lwrist 36.1968
lhand -17.9938 -11.7477
lfingers 7.12502
lthumb 8.27628 18.0701
rfemur -17.0005 -26.439 38.8102
rtibia 21.3953
rfoot -14.5512 35.6675
rtoes 16.5239
lfemur -23.3494 -7.44663 1.1222
ltibia 33.35
lfoot -17.4218 7.11862
ltoes -29.3072
